{
  "accessors": [
    {
      "bufferView": 2,
      "componentType": 5126,
      "count": 2497,
      "max": [
        0.2292180061340332,
        1.0321370363235474,
        0.8937429785728455
      ],
      "min": [
        -0.15470199286937714,
        -1.0321379899978638,
        -1.2145869731903076
      ],
      "type": "VEC3"
    },
    {
      "bufferView": 2,
      "byteOffset": 29964,
      "componentType": 5126,
      "count": 2497,
      "max": [
        1.0,
        1.0,
        0.9994990229606628
      ],
      "min": [
        -1.0,
        -1.0,
        -0.9989624619483948
      ],
      "type": "VEC3"
    },
    {
      "bufferView": 1,
      "componentType": 5126,
      "count": 2497,
      "max": [
        0.9781270027160645,
        0.9895570278167725
      ],
      "min": [
        0.013992000371217728,
        0.02375900000333786
      ],
      "type": "VEC2"
    },
    {
      "bufferView": 0,
      "componentType": 5125,
      "count": 6606,
      "type": "SCALAR"
    },
    {
      "bufferView": 2,
      "byteOffset": 59928,
      "componentType": 5126,
      "count": 122,
      "max": [
        -0.05607900023460388,
        0.0980060026049614,
        1.0341999530792236
      ],
      "min": [
        -0.11014799773693085,
        -0.09800700098276138,
        0.9550859928131104
      ],
      "type": "VEC3"
    },
    {
      "bufferView": 2,
      "byteOffset": 61392,
      "componentType": 5126,
      "count": 122,
      "max": [
        0.027938606217503548,
        0.9955743551254272,
        0.9955759644508362
      ],
      "min": [
        -1.0,
        -0.9955739378929138,
        -0.9955738186836243
      ],
      "type": "VEC3"
    },
    {
      "bufferView": 1,
      "byteOffset": 19976,
      "componentType": 5126,
      "count": 122,
      "max": [
        0.8975499868392944,
        0.8975149989128113
      ],
      "min": [
        0.10251600295305252,
        0.10248599946498871
      ],
      "type": "VEC2"
    },
    {
      "bufferView": 0,
      "byteOffset": 26424,
      "componentType": 5125,
      "count": 648,
      "type": "SCALAR"
    },
    {
      "bufferView": 2,
      "byteOffset": 62856,
      "componentType": 5126,
      "count": 4815,
      "max": [
        0.20480799674987793,
        1.171347975730896,
        1.25
      ],
      "min": [
        -0.2292180061340332,
        -1.171347975730896,
        -1.25
      ],
      "type": "VEC3"
    },
    {
      "bufferView": 2,
      "byteOffset": 120636,
      "componentType": 5126,
      "count": 4815,
      "max": [
        0.9999926686286926,
        0.9993887543678284,
        0.9999517798423767
      ],
      "min": [
        -0.9999049305915833,
        -0.999388575553894,
        -0.9999483227729797
      ],
      "type": "VEC3"
    },
    {
      "bufferView": 1,
      "byteOffset": 20952,
      "componentType": 5126,
      "count": 4815,
      "max": [
        0.9972699880599976,
        0.9890819787979126
      ],
      "min": [
        0.003046999918296933,
        0.0061090001836419106
      ],
      "type": "VEC2"
    },
    {
      "bufferView": 0,
      "byteOffset": 29016,
      "componentType": 5125,
      "count": 16692,
      "type": "SCALAR"
    }
  ],
  "asset": {
    "extras": {
      "author": "Kevin (https://sketchfab.com/Jujutsu_kaisen)",
      "license": "CC-BY-4.0 (http://creativecommons.org/licenses/by/4.0/)",
      "source": "https://sketchfab.com/3d-models/kaneki-ken-7f75a78fddce476ab105523135b514ad",
      "title": "Kaneki ken"
    },
    "generator": "Sketchfab-16.64.0",
    "version": "2.0"
  },
  "bufferViews": [
    {
      "buffer": 0,
      "byteLength": 95784,
      "name": "floatBufferViews",
      "target": 34963
    },
    {
      "buffer": 0,
      "byteLength": 59472,
      "byteOffset": 95784,
      "byteStride": 8,
      "name": "floatBufferViews",
      "target": 34962
    },
    {
      "buffer": 0,
      "byteLength": 178416,
      "byteOffset": 155256,
      "byteStride": 12,
      "name": "floatBufferViews",
      "target": 34962
    }
  ],
  "buffers": [
    {
      "byteLength": 333672,
      "uri": "scene.bin"
    }
  ],
  "extensionsUsed": [
    "KHR_materials_unlit"
  ],
  "images": [
    {
      "uri": "textures/Clothes_baseColor.png"
    },
    {
      "uri": "textures/material_baseColor.png"
    },
    {
      "uri": "textures/Hair_Skin_baseColor.png"
    }
  ],
  "materials": [
    {
      "doubleSided": true,
      "extensions": {
        "KHR_materials_unlit": {}
      },
      "name": "Clothes",
      "pbrMetallicRoughness": {
        "baseColorTexture": {
          "index": 0
        },
        "metallicFactor": 0.0
      }
    },
    {
      "doubleSided": true,
      "extensions": {
        "KHR_materials_unlit": {}
      },
      "name": "material",
      "pbrMetallicRoughness": {
        "baseColorTexture": {
          "index": 1
        },
        "metallicFactor": 0.0
      }
    },
    {
      "doubleSided": true,
      "extensions": {
        "KHR_materials_unlit": {}
      },
      "name": "Hair_Skin",
      "pbrMetallicRoughness": {
        "baseColorTexture": {
          "index": 2
        },
        "metallicFactor": 0.0
      }
    }
  ],
  "meshes": [
    {
      "name": "Object_0",
      "primitives": [
        {
          "attributes": {
            "NORMAL": 1,
            "POSITION": 0,
            "TEXCOORD_0": 2
          },
          "indices": 3,
          "material": 0,
          "mode": 4
        }
      ]
    },
    {
      "name": "Object_1",
      "primitives": [
        {
          "attributes": {
            "NORMAL": 5,
            "POSITION": 4,
            "TEXCOORD_0": 6
          },
          "indices": 7,
          "material": 1,
          "mode": 4
        }
      ]
    },
    {
      "name": "Object_2",
      "primitives": [
        {
          "attributes": {
            "NORMAL": 9,
            "POSITION": 8,
            "TEXCOORD_0": 10
          },
          "indices": 11,
          "material": 2,
          "mode": 4
        }
      ]
    }
  ],
  "nodes": [
    {
      "children": [
        1
      ],
      "matrix": [
        1.0,
        0.0,
        0.0,
        0.0,
        0.0,
        2.220446049250313e-16,
        -1.0,
        0.0,
        0.0,
        1.0,
        2.220446049250313e-16,
        0.0,
        0.0,
        0.0,
        0.0,
        1.0
      ],
      "name": "Sketchfab_model"
    },
    {
      "children": [
        2,
        3,
        4
      ],
      "name": "LVCIU1N4JZ2RLJZ2XVS7XANQM.obj.cleaner.materialmerger.gles"
    },
    {
      "mesh": 0,
      "name": "Object_2"
    },
    {
      "mesh": 1,
      "name": "Object_3"
    },
    {
      "mesh": 2,
      "name": "Object_4"
    }
  ],
  "samplers": [
    {
      "magFilter": 9729,
      "minFilter": 9987,
      "wrapS": 10497,
      "wrapT": 10497
    }
  ],
  "scene": 0,
  "scenes": [
    {
      "name": "Sketchfab_Scene",
      "nodes": [
        0
      ]
    }
  ],
  "textures": [
    {
      "sampler": 0,
      "source": 0
    },
    {
      "sampler": 0,
      "source": 1
    },
    {
      "sampler": 0,
      "source": 2
    }
  ]
}
